<svg id="_0478_online_research" xmlns="http://www.w3.org/2000/svg" viewBox="0 0 500 500" data-imageid="online-search-74" imageName="Online Search" class="illustrations_image" style="width: 166px;"><defs><style>.cls-1_online-search-74{fill:#fff;}.cls-2_online-search-74{fill:#f4a28c;}.cls-3_online-search-74,.cls-4_online-search-74,.cls-5_online-search-74,.cls-6_online-search-74{fill:#a5a5a5;}.cls-4_online-search-74{opacity:.44;}.cls-7_online-search-74,.cls-8_online-search-74{fill:#e6e6e6;}.cls-8_online-search-74{opacity:.3;}.cls-9_online-search-74{fill:none;}.cls-9_online-search-74,.cls-10_online-search-74{opacity:.08;}.cls-11_online-search-74{opacity:.09;}.cls-11_online-search-74,.cls-10_online-search-74,.cls-12_online-search-74,.cls-13_online-search-74{fill:#000001;}.cls-5_online-search-74{opacity:.36;}.cls-14_online-search-74{fill:#24285b;}.cls-6_online-search-74{opacity:.43;}.cls-13_online-search-74{opacity:.1;}.cls-15_online-search-74{fill:#ffd200;}.cls-16_online-search-74{fill:#68e1fd;}</style></defs><path id="bg_online-search-74" class="cls-8_online-search-74" d="m122.15,65.35c-46.68,22.09-87.78,80.23-90.04,160.37-1.26,44.58,5.41,158.86,102.52,188.56,155.89,47.68,296.09,31.55,325.53-83.21,26.22-102.2-15.3-238.14-93.18-266.19-54.87-19.76-153.66-42.66-244.83.47Z"/><g id="screen_online-search-74"><rect class="cls-7_online-search-74" x="61.05" y="64.78" width="376.83" height="335.58"/><circle class="cls-15_online-search-74" cx="90.87" cy="94.37" r="9.01"/><circle class="cls-16_online-search-74 targetColor" cx="116.25" cy="94.37" r="9.01" style="fill: rgb(104, 225, 253);"/><circle class="cls-14_online-search-74" cx="140.55" cy="94.37" r="9.01"/><rect class="cls-1_online-search-74" x="180.47" y="83.96" width="139.57" height="20.82"/><path class="cls-11_online-search-74" d="m246.82,156.66s39.74,38.36,19.41,74.41c-.64,1.13-1.31,2.25-2.02,3.34-9.54,14.74-24.62,25.09-40.38,32.27-6.19,2.82-12.58,5.19-19.09,7.14-5.19,1.55-11.77,2.11-15.36,6.61-1.39,1.74-2.31,3.79-3.19,5.83-2.25,5.24-4.32,10.73-4.82,16.46-.47,5.39,1.12,10.7,1.38,16.1.81,16.55-5.32,32.9-14.63,46.61-5.68,8.36-12.51,15.86-19.82,22.81-3.65,3.47-7.39,6.97-11.34,10.1-2.85,2.26-4.36,2.06-7.86,2.03-10.01-.08-20.01,0-30.02,0l35.17-92.44,30.31-59.59s54.25-2.1,71.19-24.13c16.94-22.02,11.08-67.54,11.08-67.54Z"/><rect class="cls-10_online-search-74" x="198.66" y="331.33" width="18.56" height="30.1"/><rect class="cls-10_online-search-74" x="229.95" y="299" width="18.56" height="62.44"/><rect class="cls-10_online-search-74" x="262.95" y="277.26" width="18.56" height="84.18"/><path class="cls-16_online-search-74 targetColor" d="m392.6,76.26c4.12,0,7.42.62,10.61,1.86,2.9,1.12,5.53,2.69,7.87,4.72.9.79,1.76,1.63,2.6,2.49,1.09,1.11,1.06,2.83-.02,3.96-1.04,1.09-2.78,1.18-3.92.16-.85-.76-1.63-1.61-2.5-2.35-2.22-1.89-4.72-3.27-7.5-4.13-4.11-1.27-8.23-1.31-12.36-.16-2.47.69-4.74,1.82-6.82,3.34-1.38,1-2.57,2.19-3.75,3.39-.57.58-1.17,1.08-2.03,1.19-1.11.14-2.3-.4-2.83-1.33-.65-1.15-.61-2.35.21-3.28,1.65-1.86,3.47-3.53,5.5-4.96,2.44-1.71,5.11-2.99,7.98-3.82,2.5-.72,5.06-1.1,6.97-1.09Z" style="fill: rgb(104, 225, 253);"/><path class="cls-16_online-search-74 targetColor" d="m394,86.64c2.3.11,4.49.67,6.55,1.65,2.33,1.11,4.29,2.73,5.96,4.69.99,1.16.94,2.74-.05,3.98-.84,1.05-2.45,1.45-3.69.74-.75-.43-1.39-1.08-2.03-1.69-2.76-2.62-5.98-3.58-9.71-2.71-2.11.5-3.79,1.69-5.27,3.22-.59.61-1.21,1.23-1.93,1.67-1.19.73-2.81.4-3.73-.62-.99-1.1-1.15-2.76-.26-3.92.61-.79,1.34-1.48,2.06-2.18.97-.93,2.02-1.77,3.18-2.47,1.88-1.13,3.9-1.85,6.06-2.15.95-.13,1.91-.15,2.86-.22Z" style="fill: rgb(104, 225, 253);"/><path class="cls-16_online-search-74 targetColor" d="m398.09,103.47c.07,2.55-1.88,4.99-4.84,5.1-2.6.1-5.03-1.87-5.15-4.83-.1-2.61,1.84-5.07,4.9-5.17,2.52-.08,5,1.87,5.09,4.9Z" style="fill: rgb(104, 225, 253);"/><g class="cls-9_online-search-74"><path class="cls-12_online-search-74" d="m187.58,86.91l1.93,7.41c.42,1.63.81,3.13,1.08,4.64h.09c.33-1.48.81-3.04,1.3-4.61l2.38-7.44h2.23l2.26,7.29c.54,1.75.96,3.29,1.3,4.76h.09c.24-1.48.63-3.01,1.12-4.73l2.08-7.32h2.62l-4.7,14.59h-2.41l-2.23-6.96c-.51-1.63-.93-3.08-1.3-4.79h-.06c-.36,1.75-.81,3.26-1.33,4.82l-2.35,6.93h-2.41l-4.4-14.59h2.71Z"/><path class="cls-12_online-search-74" d="m210.14,86.91l1.93,7.41c.42,1.63.81,3.13,1.08,4.64h.09c.33-1.48.81-3.04,1.3-4.61l2.38-7.44h2.23l2.26,7.29c.54,1.75.96,3.29,1.3,4.76h.09c.24-1.48.63-3.01,1.12-4.73l2.08-7.32h2.62l-4.7,14.59h-2.41l-2.23-6.96c-.51-1.63-.93-3.08-1.3-4.79h-.06c-.36,1.75-.81,3.26-1.33,4.82l-2.35,6.93h-2.41l-4.4-14.59h2.71Z"/><path class="cls-12_online-search-74" d="m232.69,86.91l1.93,7.41c.42,1.63.81,3.13,1.08,4.64h.09c.33-1.48.81-3.04,1.3-4.61l2.38-7.44h2.23l2.26,7.29c.54,1.75.96,3.29,1.3,4.76h.09c.24-1.48.63-3.01,1.12-4.73l2.08-7.32h2.62l-4.7,14.59h-2.41l-2.23-6.96c-.51-1.63-.93-3.08-1.3-4.79h-.06c-.36,1.75-.81,3.26-1.33,4.82l-2.35,6.93h-2.41l-4.4-14.59h2.71Z"/><path class="cls-12_online-search-74" d="m252.03,99.93c0-1.11.75-1.9,1.81-1.9s1.78.78,1.78,1.9-.69,1.9-1.81,1.9c-1.05,0-1.78-.81-1.78-1.9Z"/></g></g><g id="profile_online-search-74"><rect class="cls-14_online-search-74" x="315.29" y="129.68" width="172.78" height="237.28"/><rect class="cls-6_online-search-74" x="375.71" y="182.55" width="37.38" height="10.72"/><circle class="cls-5_online-search-74" cx="350.8" cy="190.21" r="14.25"/><rect class="cls-16_online-search-74 targetColor" x="346.85" y="313.5" width="78.01" height="22.78" style="fill: rgb(104, 225, 253);"/><rect class="cls-3_online-search-74" x="346.85" y="221.66" width="76.75" height="9.46"/><rect class="cls-4_online-search-74" x="346.85" y="246.45" width="119.96" height="9.46"/><rect class="cls-4_online-search-74" x="346.85" y="267.18" width="119.96" height="9.46"/><rect class="cls-4_online-search-74" x="346.85" y="288.73" width="94.16" height="9.46"/><circle class="cls-15_online-search-74" cx="332.04" cy="148.57" r="6.48"/><circle class="cls-16_online-search-74 targetColor" cx="350.29" cy="148.57" r="6.48" style="fill: rgb(104, 225, 253);"/><circle class="cls-1_online-search-74" cx="367.76" cy="148.57" r="6.48"/></g><g id="data_online-search-74"><path class="cls-2_online-search-74" d="m79.25,334.79s27.26-71.86,66.99-65.73c39.73,6.13,42.85,126.18-55.77,123.97l-11.22-58.25Z"/><path class="cls-13_online-search-74" d="m171.57,326.25c-2.52,20.9-12.83,42.51-33.57,55.3-8.74,5.4-19.36,9.22-32.02,10.78-4.86.58-10.03.85-15.5.71l-11.24-58.26s27.27-71.85,66.99-65.73c11.58,1.79,20.03,13.25,23.8,28.54,2.13,8.66,2.73,18.59,1.54,28.66Z"/><path class="cls-13_online-search-74" d="m171.57,326.25c-9.87,11.49-27.45,18.21-30.46,36.01-1.08,6.36-2.15,13.06-3.11,19.28-8.74,5.4-19.36,9.22-32.02,10.78l5.78-37.45,56.18-59.31s.88.73,2.09,2.04c2.13,8.66,2.73,18.59,1.54,28.66Z"/><rect class="cls-16_online-search-74 targetColor" x="147.41" y="244.57" width="23.95" height="49.45" transform="translate(90.8 -36.02) rotate(17.96)" style="fill: rgb(104, 225, 253);"/><path class="cls-14_online-search-74" d="m207.7,121.7c-37.48-12.15-77.71,8.39-89.86,45.86-12.15,37.48,8.39,77.71,45.86,89.86,37.48,12.15,77.71-8.39,89.86-45.86,12.15-37.48-8.39-77.71-45.86-89.86Zm-38.54,118.9c-28.19-9.14-43.63-39.39-34.5-67.58,9.14-28.19,39.39-43.63,67.58-34.5,28.19,9.14,43.63,39.39,34.5,67.58-9.14,28.19-39.39,43.63-67.58,34.5Z"/><rect class="cls-14_online-search-74" x="123.23" y="277.24" width="39.88" height="84.22" rx="6.28" ry="6.28" transform="translate(105.44 -28.58) rotate(17.96)"/><path class="cls-2_online-search-74" d="m114.63,312s35.51-26.63,48.33-21.8c10.57,3.99,7.23,25.74-19.38,40.18-10.92,5.92-18.8,16.11-21.5,28.23-2.24,10.02-7.44,21.55-19.12,29.06-24.56,15.8-38.02-3.35-31.95-28.84,6.08-25.5,8.65-32.95,43.62-46.82Z"/><polygon class="cls-16_online-search-74 targetColor" points="98.61 459.18 115.52 385.39 59.71 358.6 11.93 459.18 98.61 459.18" style="fill: rgb(104, 225, 253);"/><polygon class="cls-13_online-search-74" points="98.61 459.18 115.52 385.39 88.87 372.6 64 459.18 98.61 459.18"/><path class="cls-3_online-search-74" d="m186.29,234.59c-24.83,0-45.03-20.2-45.03-45.03s20.2-45.03,45.03-45.03,45.03,20.2,45.03,45.03-20.2,45.03-45.03,45.03Zm0-77.93c-18.14,0-32.9,14.76-32.9,32.9s14.76,32.9,32.9,32.9,32.9-14.76,32.9-32.9-14.76-32.9-32.9-32.9Z"/><path class="cls-14_online-search-74" d="m186.29,234.59c-11.02,0-21.63-4.03-29.87-11.33l8.05-9.07c6.02,5.34,13.77,8.28,21.82,8.28v12.13Z"/><path class="cls-16_online-search-74 targetColor" d="m231.32,189.56h-12.13c0-18.14-14.76-32.9-32.9-32.9v-12.13c24.83,0,45.03,20.2,45.03,45.03Z" style="fill: rgb(104, 225, 253);"/><path class="cls-15_online-search-74" d="m186.29,234.59v-12.13c18.14,0,32.9-14.76,32.9-32.9h12.13c0,24.83-20.2,45.03-45.03,45.03Z"/></g></svg>