<svg version="1.1" id="Layer_1" xmlns="http://www.w3.org/2000/svg" xmlns:xlink="http://www.w3.org/1999/xlink" x="0px" y="0px" viewBox="0 0 500 500" style="width: 166px;" xml:space="preserve" data-imageid="fitness-46" imageName="Fitness" class="illustrations_image">
<style type="text/css">
	.st0_fitness-46{fill:#FFC9B0;}
	.st1_fitness-46{fill:#093F68;}
	.st2_fitness-46{fill:#725858;}
	.st3_fitness-46{fill:#68E1FD;}
	.st4_fitness-46{fill:#F56132;}
</style>
<g id="character_fitness-46">
	<path class="st0_fitness-46" d="M322.9,286.8c0,0,37.2,60.8,40.1,60.3l11.6-2.1c1-0.5,2.2,0,2.7,1c0.1,0.2,0.1,0.4,0.2,0.6&#10;&#9;&#9;c3.8,11.3,7.3,23,7.5,35c0.1,9.8-2,22.5-10.1,29c-4.6,3.7-10.9,4.9-16.7,4c-8-1.4-15.2-5.9-20-12.5c-3.5-5-6-10.7-8.9-16.1&#10;&#9;&#9;c-2.5-4.6-5.2-9.2-8-13.6c-2.4-3.7-6.2-7.7-7.4-12c-2.5-8.8-3.3-18.1-5.9-27c-1.7-5.7-4.4-7.9-2.6-13.8&#10;&#9;&#9;C309.9,305.1,322.9,286.8,322.9,286.8z"/>
	<path class="st1_fitness-46" d="M361.8,416.7c-1.4,0-2.7-0.1-4.1-0.3c-8.5-1.5-16.1-6.3-21.2-13.2c-2.6-3.9-4.9-7.9-6.9-12.1&#10;&#9;&#9;c-0.7-1.4-1.4-2.8-2.1-4.2c-2.2-4.1-4.7-8.4-7.9-13.5c-0.7-1.1-1.5-2.2-2.4-3.4c-2.1-2.9-4.3-5.8-5.3-9.1c-1.3-4.4-2.1-9-2.9-13.4&#10;&#9;&#9;c-0.8-4.6-1.8-9.1-3-13.5c-0.4-1.4-0.9-2.7-1.5-4.1c-1.3-3.1-2.5-6-1-10.8c4.7-14.7,17.4-32.7,18-33.4c0.4-0.5,1-0.8,1.6-0.7&#10;&#9;&#9;c0.6,0,1.2,0.3,1.5,0.9c13,21.3,34.6,55.4,38.8,59.4l10.9-2c1.2-0.3,2.4-0.1,3.5,0.5c0.7,0.6,1.2,1.4,1.5,2.2&#10;&#9;&#9;c3.6,10.6,7.4,22.9,7.6,35.5c0.1,6.5-0.8,22.4-10.8,30.5C371.9,415.1,366.9,416.8,361.8,416.7z M322.8,290.2&#10;&#9;&#9;c-3.6,5.4-12.3,18.9-15.9,30.1c-1.1,3.5-0.4,5.3,0.9,8.2c0.6,1.5,1.2,2.9,1.7,4.5c1.3,4.6,2.3,9.2,3.1,13.9&#10;&#9;&#9;c0.8,4.3,1.6,8.8,2.9,13.1c0.8,2.6,2.8,5.3,4.7,7.9c0.9,1.2,1.8,2.4,2.5,3.6c3.3,5.1,5.9,9.5,8.1,13.7c0.7,1.4,1.5,2.8,2.2,4.2&#10;&#9;&#9;c1.9,4,4.1,7.9,6.6,11.6c4.5,6.2,11.2,10.4,18.8,11.7c5.4,1,10.9-0.3,15.2-3.6c8.8-7.1,9.5-21.6,9.4-27.6&#10;&#9;&#9;c-0.2-12.1-3.9-24.1-7.4-34.4c0-0.1-0.1-0.3-0.1-0.4l-0.6,0.1l-11.6,2.1C361.8,349.2,359.3,349.6,322.8,290.2L322.8,290.2z&#10;&#9;&#9; M363.6,345.4L363.6,345.4z"/>
	<path class="st1_fitness-46" d="M347.3,393.3c-1,0-1.8-0.8-1.8-1.7c-0.7-11.9,8.6-27.4,9-28c0.6-0.8,1.7-1,2.6-0.5c0.8,0.5,1,1.5,0.6,2.4&#10;&#9;&#9;c-0.1,0.1-9.1,15.2-8.5,25.9c0.1,1-0.6,1.9-1.6,2c0,0,0,0-0.1,0L347.3,393.3z"/>
	<path class="st2_fitness-46" d="M214.3,91.3c-7.4-6.3-19.8-7.6-29.7-4.6c-5.3,1.6-10.4,4.6-13.4,9.3c-2.8,4.3-3.5,9.6-5,14.6&#10;&#9;&#9;c-4,12.7-13.3,23-25.5,28.1c5.4,8,15.4,12.2,25,11.9c12.1-0.3,27.5-7.8,37.2-14.8c9.3-6.7,16.7-16.8,17.7-28.3&#10;&#9;&#9;C221.3,100.4,218.7,95,214.3,91.3z"/>
	<path class="st1_fitness-46" d="M165,152.5c-10.6,0-20.4-4.8-25.8-12.8c-0.3-0.5-0.4-1-0.2-1.6c0.1-0.5,0.5-1,1-1.2&#10;&#9;&#9;c11.7-4.9,20.7-14.8,24.5-27c0.4-1.3,0.8-2.7,1.1-4.1c0.9-3.7,1.9-7.6,4.1-10.9c3.7-5.8,9.9-8.7,14.4-10.1c11-3.4,24-1.4,31.4,5&#10;&#9;&#9;l0,0c5.2,4.4,7.6,10.6,6.9,17.9c-1,11-7.7,21.8-18.4,29.6c-10.1,7.3-25.8,14.8-38.2,15.1H165z M143.6,139.4c5,6,13.5,9.6,22.1,9.4&#10;&#9;&#9;c11.6-0.3,26.5-7.5,36.1-14.5c9.9-7.2,16.1-17,16.9-26.9c0.6-6.1-1.4-11.1-5.7-14.7l0,0c-6.5-5.6-18-7.3-28-4.2&#10;&#9;&#9;c-3.9,1.2-9.3,3.7-12.4,8.5c-1.8,2.9-2.7,6.3-3.6,9.8c-0.4,1.4-0.7,2.9-1.1,4.3C164.1,123.5,155.3,133.8,143.6,139.4L143.6,139.4z"/>
	<path class="st2_fitness-46" d="M323.9,91.3c7.4-6.3,19.8-7.6,29.7-4.6c5.3,1.6,10.4,4.6,13.4,9.3c2.8,4.3,3.5,9.6,5,14.6&#10;&#9;&#9;c4,12.7,13.3,23,25.5,28.1c-5.4,8-15.4,12.2-25,11.9c-12.1-0.3-27.5-7.8-37.1-14.8c-9.3-6.7-16.7-16.8-17.7-28.3&#10;&#9;&#9;C316.9,100.4,319.5,95,323.9,91.3z"/>
	<path class="st1_fitness-46" d="M373.2,152.5h-0.9c-12.4-0.3-28.1-7.8-38.2-15.1c-10.8-7.8-17.5-18.6-18.5-29.6c-0.6-7.3,1.8-13.4,7-17.9l0,0&#10;&#9;&#9;c7.5-6.3,20.4-8.4,31.4-5c4.5,1.4,10.7,4.3,14.4,10.1c2.2,3.4,3.1,7.2,4.1,10.9c0.4,1.4,0.7,2.8,1.1,4.1c3.8,12.2,12.7,22,24.5,27&#10;&#9;&#9;c0.5,0.2,0.9,0.6,1.1,1.2c0.2,0.5,0.1,1.1-0.2,1.6C393.6,147.7,383.8,152.5,373.2,152.5z M325.1,92.7c-4.3,3.7-6.2,8.6-5.7,14.7&#10;&#9;&#9;c0.9,9.9,7.1,19.8,17,26.9c9.6,7,24.5,14.2,36.1,14.5c8.7,0.2,17.1-3.4,22.1-9.4c-11.7-5.7-20.6-15.9-24.4-28.3&#10;&#9;&#9;c-0.4-1.4-0.8-2.8-1.2-4.3c-0.9-3.6-1.8-7-3.6-9.8c-3.1-4.9-8.5-7.3-12.4-8.5C343.1,85.4,331.6,87.1,325.1,92.7L325.1,92.7z"/>
	<polygon class="st0_fitness-46" points="210.8,285.4 151.4,361.9 179.9,399.9 230.1,333.7 &#9;"/>
	<path class="st1_fitness-46" d="M179.9,400.7c-0.6,0-1.1,0.7-1.5,0.3l-28.5-38c-0.5-0.7-0.5-1.6,0-2.2l59.4-76.5c0.6-0.8,1.8-0.9,2.6-0.3&#10;&#9;&#9;c0.3,0.2,0.5,0.5,0.6,0.8l19.3,48.3c0.2,0.6,0.1,1.3-0.2,1.8l-48.3,63.1C182.2,398.9,181.1,399.9,179.9,400.7z M153.7,361.9&#10;&#9;&#9;l26.2,35l48.1-63.5L210.3,289L153.7,361.9z"/>
	<path class="st2_fitness-46" d="M231.6,92.5c-4.7,1.5-9.2,3.5-13.5,5.9c-13.1,7.5-23.1,18.2-25.2,33.2c-2.6,18.8-2.2,36.9-1.9,55.9&#10;&#9;&#9;c0.1,8.9,1,12.5,8.4,18.1c6.3,4.8,14,7.6,21.5,9.9c19.9,6.1,40.5,9.3,61.3,9.5c11.3,0.1,22.7-0.7,33.3-4.6&#10;&#9;&#9;c10.9-4,24.2-13.2,26.8-25.2c1.7-7.9,0.2-18,0.5-26.1c0.3-9,0.8-18.1,0.8-27.1c0-53-65.8-61.8-105.4-51.4&#10;&#9;&#9;C235.9,91.1,233.7,91.8,231.6,92.5z"/>
	<path class="st1_fitness-46" d="M284.1,226.8h-1.9c-21-0.2-41.8-3.4-61.8-9.5c-7.1-2.2-15.3-5.1-22.1-10.2c-8.2-6.2-9-10.5-9.2-19.6v-3.1&#10;&#9;&#9;c-0.3-18-0.6-35.1,1.9-53c2-14.2,10.8-25.8,26.1-34.5c4.4-2.5,9-4.5,13.8-6.1c2.1-0.7,4.4-1.4,6.7-2c25.9-6.8,64.6-5.9,88.2,12.2&#10;&#9;&#9;c13,10,19.5,23.8,19.5,40.9c0,7.3-0.3,14.6-0.6,21.8l-0.2,5.4c-0.1,2.9,0,5.9,0.1,9.2c0.2,5.9,0.5,12-0.7,17.3&#10;&#9;&#9;c-2.8,13-16.8,22.4-28,26.5S293.5,226.8,284.1,226.8z M269.1,88.4c-10.3,0-20.5,1.4-30.5,4c-2.2,0.6-4.4,1.2-6.4,1.9l0,0&#10;&#9;&#9;c-4.6,1.5-9,3.4-13.1,5.7c-14.3,8.2-22.5,18.9-24.3,31.9c-2.4,17.7-2.2,34.6-1.9,52.5l0.1,3.1c0.1,8.3,0.8,11.4,7.7,16.7&#10;&#9;&#9;c6.3,4.8,14.1,7.6,20.9,9.6c19.7,6,40.2,9.2,60.8,9.4c9.2,0.1,21.4-0.4,32.6-4.5c11.1-4.1,23.3-13,25.6-23.8&#10;&#9;&#9;c1-4.9,0.8-10.7,0.6-16.4c-0.1-3.3-0.3-6.5-0.1-9.4l0.2-5.4c0.3-7.1,0.6-14.4,0.6-21.6c0-16-6.1-28.7-18.1-38&#10;&#9;&#9;C312.4,95.3,292.5,88.4,269.1,88.4z M231.6,92.5L231.6,92.5z"/>
	<path class="st3_fitness-46 targetColor" d="M333.8,329.5c-0.1,9.9-2.8,19.5-7.8,28v57.4H210.3v-57.5c-5.1-8.4-7.8-18.1-7.8-27.9&#10;&#9;&#9;c-0.1-9.2,2.6-18.3,7.8-25.9v-14.4c0-8.2,6.6-14.8,14.8-14.8c0,0,0,0,0,0h86.1c8.2,0,14.8,6.6,14.8,14.7v0v14.4&#10;&#9;&#9;C331.2,311.2,333.9,320.2,333.8,329.5z" style="fill: rgb(104, 225, 253);"/>
	<path class="st1_fitness-46" d="M326,416.7H210.3c-1,0-1.9-0.8-1.9-1.9l0,0v-56.9c-5.1-8.6-7.8-18.4-7.8-28.5c-0.1-9.4,2.6-18.6,7.8-26.5&#10;&#9;&#9;v-13.8c0-9.2,7.5-16.6,16.6-16.6h86.1c9.2,0,16.6,7.4,16.6,16.6V303c5.2,7.8,8,17.1,7.8,26.5c-0.1,10-2.8,19.8-7.8,28.5v56.9&#10;&#9;&#9;C327.8,415.9,327,416.7,326,416.7z M212.2,413h111.9v-55.6c0-0.3,0.1-0.7,0.3-0.9c4.9-8.2,7.5-17.5,7.6-27&#10;&#9;&#9;c0.1-8.9-2.5-17.5-7.5-24.8c-0.2-0.3-0.3-0.7-0.3-1.1v-14.4c0-7.1-5.8-12.9-12.9-12.9h-86.1c-7.1,0-12.9,5.8-12.9,12.9v14.4&#10;&#9;&#9;c0,0.4-0.1,0.7-0.3,1c-5,7.3-7.6,16-7.5,24.8c0.1,9.5,2.7,18.8,7.6,27c0.2,0.3,0.3,0.6,0.3,0.9V413z"/>
	<path class="st0_fitness-46" d="M240.7,274.6h54.9l0,0v29.7c0,13.9-11.3,25.1-25.1,25.1l0,0h-4.6c-13.9,0-25.1-11.3-25.1-25.1l0,0L240.7,274.6&#10;&#9;&#9;L240.7,274.6L240.7,274.6z"/>
	<path class="st1_fitness-46" d="M268.2,331.3c-16.2,0-29.3-13.1-29.3-29.3v-27.4c0-1,0.8-1.8,1.8-1.8h54.9c1,0,1.8,0.8,1.8,1.8v27.4&#10;&#9;&#9;C297.4,318.2,284.3,331.3,268.2,331.3z M242.6,276.5v25.6c0,14.1,11.4,25.6,25.6,25.6c14.1,0,25.6-11.4,25.6-25.6c0,0,0,0,0,0&#10;&#9;&#9;v-25.6L242.6,276.5z"/>
	<polyline class="st0_fitness-46" points="256.3,279.8 256.3,266.8 278.9,266.8 278.9,279.8 &#9;"/>
	<path class="st1_fitness-46" d="M278.9,281.7c-1,0-1.8-0.8-1.8-1.8v-11.2h-19v11.2c0,1-0.8,1.8-1.8,1.8c-1,0-1.8-0.8-1.8-1.8v-13&#10;&#9;&#9;c0-1,0.8-1.8,1.8-1.8h22.7c1,0,1.8,0.8,1.8,1.8v13C280.8,280.8,280,281.7,278.9,281.7L278.9,281.7z"/>
	<ellipse class="st0_fitness-46" cx="202.8" cy="207.9" rx="22" ry="19"/>
	<path class="st1_fitness-46" d="M202.8,228.7c-13.2,0-23.9-9.4-23.9-20.8s10.7-20.9,23.9-20.9s23.9,9.3,23.9,20.8S216,228.7,202.8,228.7z&#10;&#9;&#9; M202.8,190.7c-11.1,0-20.2,7.7-20.2,17.1s9.1,17.2,20.2,17.2s20.2-7.7,20.2-17.1S213.9,190.7,202.8,190.7L202.8,190.7z"/>
	<ellipse class="st0_fitness-46" cx="331.2" cy="207.9" rx="22" ry="19"/>
	<path class="st1_fitness-46" d="M331.2,228.7c-13.2,0-23.9-9.4-23.9-20.8s10.7-20.9,23.9-20.9s23.9,9.3,23.9,20.8S344.4,228.7,331.2,228.7z&#10;&#9;&#9; M331.2,190.7c-11.1,0-20.2,7.7-20.2,17.1s9.1,17.2,20.2,17.2s20.2-7.7,20.2-17.1S342.4,190.7,331.2,190.7L331.2,190.7z"/>
	<path class="st0_fitness-46" d="M244.7,117.9c-1.7,29.3-40.6,44.8-43.5,42.4v43c0,36.7,29.8,66.5,66.5,66.4c36.7,0,66.4-29.8,66.4-66.4v-51.7&#10;&#9;&#9;C268.8,152.6,244.7,117.9,244.7,117.9z"/>
	<path class="st1_fitness-46" d="M267.6,271.6c-37.7,0-68.3-30.6-68.3-68.3v-43c0-1,0.8-1.8,1.8-1.8c0.3,0,0.6,0.1,0.9,0.2&#10;&#9;&#9;c1.9,0.3,12.1-2.9,22.4-10.8c7.9-6,17.6-16.2,18.4-30.2c0-0.8,0.6-1.5,1.3-1.7c0.8-0.2,1.6,0.1,2,0.7c0.2,0.3,23.7,33,85.1,33h2.8&#10;&#9;&#9;c0.5,0,1,0.2,1.3,0.5c0.4,0.3,0.5,0.8,0.5,1.3v51.7C335.8,241,305.3,271.5,267.6,271.6z M203,162.4v40.9c0,35.7,29,64.6,64.6,64.6&#10;&#9;&#9;c35.7,0,64.6-28.9,64.6-64.6v-49.8h-1c-52,0-77.2-22.3-85.2-31.1c-4.1,22.6-28.4,34.7-33.6,37C209.4,160.8,205.7,162.1,203,162.4z&#10;&#9;&#9; M202.3,158.9L202.3,158.9z"/>
	<circle class="st1_fitness-46" cx="236.8" cy="193.6" r="6.1"/>
	<path class="st1_fitness-46" d="M267.3,216.1c-2,0-4-0.2-6-0.5c-1-0.2-1.7-1.1-1.5-2.1c0.2-1,1.1-1.7,2.1-1.5c0,0,0,0,0,0&#10;&#9;&#9;c0.1,0,5.4,0.9,9.2,0.1c0.4-1.7-1.9-8.4-5.2-14.6c-0.5-0.9-0.1-2,0.8-2.5c0.9-0.5,2-0.1,2.5,0.8c1.7,3.2,7,14,5.2,18&#10;&#9;&#9;c-0.4,0.9-1.2,1.6-2.2,1.8C270.6,216,269,216.2,267.3,216.1z"/>
	<path class="st1_fitness-46" d="M256.9,182.2c-0.2,0-0.3,0-0.5,0l-35.6-6.4c-1.6-0.2-2.8-1.6-2.6-3.2c0.2-1.6,1.6-2.8,3.2-2.6&#10;&#9;&#9;c0.1,0,0.3,0,0.4,0.1l35.6,6.4c1.6,0.3,2.6,1.8,2.3,3.4C259.5,181.3,258.3,182.3,256.9,182.2L256.9,182.2z"/>
	<circle class="st1_fitness-46" cx="303.8" cy="193.6" r="6.1"/>
	<path class="st1_fitness-46" d="M283.7,182.2c-1.6,0-2.9-1.3-2.9-2.9c0-1.4,1-2.6,2.4-2.9l35.6-6.4c1.6-0.4,3.2,0.6,3.5,2.1s-0.6,3.2-2.1,3.5&#10;&#9;&#9;c-0.1,0-0.3,0.1-0.4,0.1l-35.6,6.4C284.1,182.2,283.9,182.2,283.7,182.2z"/>
	<path class="st4_fitness-46" d="M83.1,296.5l106.4-28.2c1.6-0.4,3.3,0.5,3.8,2.2l1.4,5.2c0.4,1.6-0.5,3.3-2.2,3.8L86.1,307.6&#10;&#9;&#9;c-1.6,0.4-3.3-0.5-3.8-2.2l-1.4-5.2C80.5,298.7,81.5,297,83.1,296.5z"/>
	<path class="st1_fitness-46" d="M87.1,309c-4.2,0-7.6-3.4-7.6-7.5c0-3.4,2.3-6.5,5.6-7.4l101.4-26.9c4.1-1,8.2,1.5,9.1,5.6&#10;&#9;&#9;c0.9,3.9-1.4,7.9-5.2,9L89,308.7C88.4,308.9,87.8,309,87.1,309z M188.4,270.7c-0.3,0-0.7,0-1,0.1L86.1,297.6&#10;&#9;&#9;c-2.1,0.7-3.2,2.8-2.5,4.9c0.6,1.9,2.6,3.1,4.5,2.6l101.4-26.9l0,0c2-0.5,3.2-2.6,2.7-4.7c0,0,0,0,0,0c-0.2-1-0.9-1.9-1.8-2.5&#10;&#9;&#9;C189.8,270.9,189.1,270.7,188.4,270.7L188.4,270.7z"/>
	<path class="st4_fitness-46" d="M84.7,272.7l18.4-4.9c2.2-0.6,4.5,0.7,5.1,2.9l12.9,48.5c0.6,2.2-0.7,4.5-2.9,5.1l-18.4,4.9&#10;&#9;&#9;c-2.2,0.6-4.5-0.7-5.1-2.9l-12.9-48.5C81.2,275.6,82.5,273.3,84.7,272.7z"/>
	<path class="st1_fitness-46" d="M101.1,330.5c-4.3,0-8.1-2.9-9.2-7.1l-11.1-41.8c-1.4-5,1.6-10.2,6.7-11.6c0,0,0,0,0.1,0l11.6-3&#10;&#9;&#9;c5.1-1.3,10.3,1.7,11.6,6.7c0,0,0,0,0,0l11.1,41.8c1.3,5.1-1.7,10.3-6.7,11.6c0,0,0,0,0,0l0,0l-11.6,3.1&#10;&#9;&#9;C102.7,330.4,101.9,330.5,101.1,330.5z M101.7,270.3c-0.5,0-1,0.1-1.5,0.2l-11.6,3.1c-3.1,0.8-4.9,4-4.1,7.1c0,0,0,0,0,0l11.1,41.8&#10;&#9;&#9;c0.8,3.1,4,4.9,7.1,4.1l11.6-3.1c3.1-0.8,4.9-4,4.1-7.1c0,0,0,0,0,0l-11.1-41.8C106.6,272.1,104.3,270.3,101.7,270.3L101.7,270.3z&#10;&#9;&#9; M114.7,325.3L114.7,325.3z"/>
	<path class="st4_fitness-46" d="M156.1,253.9l16.4-4.4c2.8-0.7,5.6,0.9,6.4,3.7l12.5,46.7c0.7,2.8-0.9,5.6-3.7,6.4l-16.4,4.4&#10;&#9;&#9;c-2.8,0.7-5.6-0.9-6.4-3.7l-12.5-46.7C151.7,257.5,153.4,254.7,156.1,253.9z"/>
	<path class="st1_fitness-46" d="M171.7,311.7c-4.3,0-8-2.9-9.1-7l-11.1-41.8c-1.3-5.1,1.7-10.3,6.7-11.6l11.6-3.1c5.1-1.3,10.3,1.7,11.6,6.7&#10;&#9;&#9;l11.1,41.8c1.3,5.1-1.7,10.3-6.7,11.6c0,0,0,0,0,0l-11.6,3.1C173.3,311.6,172.5,311.7,171.7,311.7z M172.3,251.6&#10;&#9;&#9;c-0.5,0-1,0.1-1.5,0.2l-11.6,3.1c-3.1,0.8-5,4-4.2,7.1c0,0,0,0,0,0l11.1,41.8c0.8,3.1,4,4.9,7.1,4.1c0,0,0,0,0,0l11.6-3.1l0,0&#10;&#9;&#9;c3.1-0.8,4.9-4,4.1-7.1c0,0,0,0,0,0l-11.1-41.8C177.2,253.4,174.9,251.6,172.3,251.6L172.3,251.6z"/>
	<path class="st0_fitness-46" d="M189.3,373.5l-11.9-24.8L158,308.4c-3.7-16.4-3.3-37.1-9.6-42.2c-2.8-2.2-19.3-2.9-23,4.1s-7,21.6-6.1,26.1&#10;&#9;&#9;c0.7,3.5,9.8,16.2,12.6,21.2l15.5,69.3c3.8,11.5,16.3,17.8,27.8,13.9C186.5,397,192.8,384.9,189.3,373.5L189.3,373.5z"/>
	<path class="st1_fitness-46" d="M168.4,404c-10.4,0-19.6-6.7-22.7-16.6l-15.5-69.2c-1-1.7-2.6-4.2-4.4-6.9c-4.7-7.2-7.8-12.1-8.3-14.6&#10;&#9;&#9;c-1-5.1,2.5-20.1,6.3-27.3c1.6-2.9,4.9-5,9.8-6c6-1.2,13.6-0.6,16,1.3c4.7,3.8,6,13.9,7.4,25.6c0.7,5.8,1.5,11.8,2.7,17.4&#10;&#9;&#9;l31.2,64.9c0,0.1,0.1,0.2,0.1,0.2c4,12.6-2.9,26-15.5,30C173.3,403.6,170.8,404,168.4,404z M140.1,266.5c-1.9,0-3.9,0.2-5.8,0.6&#10;&#9;&#9;c-3.7,0.8-6.3,2.2-7.3,4.1c-3.6,6.7-6.7,21-5.9,24.9c0.4,1.9,4.8,8.8,7.8,13.3c1.9,2.9,3.6,5.6,4.6,7.4c0.1,0.2,0.2,0.3,0.2,0.5&#10;&#9;&#9;l15.5,69.3c3.6,10.5,15,16.2,25.5,12.7c10.3-3.5,16-14.5,12.8-25l-31.2-64.9c-0.1-0.1-0.1-0.3-0.1-0.4c-1.3-5.8-2.1-11.9-2.8-17.9&#10;&#9;&#9;c-1.3-10-2.6-20.4-6.1-23.2C146.7,267.2,143.8,266.5,140.1,266.5z"/>
	<path class="st1_fitness-46" d="M275.2,244.2c-5.9,0.1-11.8-1.4-17-4.3c-13.3-7.6-16.9-22.4-17-23c-0.2-1,0.4-2,1.4-2.2c1-0.2,2,0.4,2.2,1.4&#10;&#9;&#9;c0,0.1,3.4,13.9,15.3,20.7c8.1,4.6,18.5,5,30.6,1.1c1-0.3,2,0.3,2.3,1.3c0.2,0.9-0.3,1.9-1.1,2.2&#10;&#9;&#9;C286.5,243.2,280.9,244.1,275.2,244.2z"/>
	<path class="st4_fitness-46" d="M415.7,320.1l-103.6,37.2c-1.6,0.6-3.4-0.3-3.9-1.9l-1.8-5c-0.6-1.6,0.3-3.4,1.9-3.9l103.6-37.2&#10;&#9;&#9;c1.6-0.6,3.4,0.3,3.9,1.9l1.8,5C418.2,317.8,417.3,319.5,415.7,320.1z"/>
	<path class="st1_fitness-46" d="M312.7,358.6c-1.1,0-2.2-0.2-3.2-0.7c-1.8-0.8-3.2-2.4-3.9-4.2c-1.5-3.9,0.5-8.2,4.4-9.7c0,0,0.1,0,0.1,0&#10;&#9;&#9;l98.7-35.4c3.9-1.4,8.2,0.6,9.6,4.5c0,0,0,0,0,0c0.7,1.9,0.6,4-0.2,5.9c-0.8,1.8-2.4,3.2-4.2,3.9l-98.7,35.4l0,0&#10;&#9;&#9;C314.4,358.4,313.6,358.6,312.7,358.6z M314.6,356.4L314.6,356.4z M411.3,311.7c-0.4,0-0.9,0.1-1.3,0.2l-98.7,35.4&#10;&#9;&#9;c-2,0.7-3,2.9-2.3,4.9c0.3,1,1,1.9,2,2.3c0.9,0.4,2,0.5,2.9,0.1l98.7-35.4c2-0.7,3-2.9,2.3-4.9c-0.3-1-1-1.9-2-2.3&#10;&#9;&#9;C412.5,311.8,411.9,311.7,411.3,311.7L411.3,311.7z"/>
	<path class="st4_fitness-46" d="M416.8,345.6l-17.9,6.4c-2.2,0.8-4.5-0.3-5.3-2.5l-16.9-47.2c-0.8-2.2,0.3-4.5,2.5-5.3l17.9-6.4&#10;&#9;&#9;c2.2-0.8,4.5,0.3,5.3,2.5l16.9,47.2C420.1,342.5,419,344.8,416.8,345.6z"/>
	<path class="st1_fitness-46" d="M399.6,353.2c-4,0-7.6-2.5-8.9-6.3l-14.6-40.7c-1.8-4.9,0.8-10.3,5.7-12.1c0,0,0,0,0,0l11.3-4.1&#10;&#9;&#9;c4.9-1.8,10.4,0.8,12.1,5.7l14.6,40.7c1.8,4.9-0.8,10.4-5.7,12.1l-11.3,4.1l0,0C401.8,353,400.7,353.2,399.6,353.2z M402.2,350.9&#10;&#9;&#9;L402.2,350.9z M396.3,293.2c-0.7,0-1.4,0.1-2,0.4l-11.3,4.1c-1.5,0.5-2.6,1.6-3.3,3c-0.7,1.4-0.7,3-0.2,4.4l14.6,40.7&#10;&#9;&#9;c1.1,3,4.4,4.6,7.4,3.5l11.3-4.1c3-1.1,4.6-4.4,3.5-7.4L401.8,297C401,294.7,398.8,293.2,396.3,293.2L396.3,293.2z"/>
	<path class="st4_fitness-46" d="M348.1,370.3l-17.9,6.4c-2.2,0.8-4.5-0.3-5.3-2.5L307.9,327c-0.8-2.2,0.3-4.5,2.5-5.3l17.9-6.4&#10;&#9;&#9;c2.2-0.8,4.5,0.3,5.3,2.5l16.9,47.2C351.3,367.2,350.2,369.5,348.1,370.3z"/>
	<path class="st1_fitness-46" d="M330.9,377.9c-1.4,0-2.7-0.3-4-0.9c-2.3-1.1-4-3-4.9-5.4l-14.6-40.7c-1.8-4.9,0.8-10.4,5.7-12.1l11.3-4.1&#10;&#9;&#9;c4.9-1.8,10.4,0.8,12.1,5.7l14.6,40.7c1.8,4.9-0.8,10.4-5.7,12.1l-11.3,4.1C333.1,377.7,332,377.9,330.9,377.9z M327.6,317.9&#10;&#9;&#9;c-0.7,0-1.4,0.1-2,0.3l-11.3,4.1c-3,1.1-4.6,4.4-3.5,7.4c0,0,0,0,0,0l14.6,40.7c1.1,3,4.4,4.6,7.4,3.5c0,0,0,0,0,0l0,0l11.3-4.1&#10;&#9;&#9;c3-1.1,4.6-4.4,3.5-7.4L333,321.7c-0.5-1.5-1.6-2.6-3-3.3C329.2,318.1,328.4,317.9,327.6,317.9L327.6,317.9z"/>
	<path class="st0_fitness-46" d="M347.1,338.4l4.5-1.6c1.5-0.5,3.1,0.2,3.6,1.7l9.6,26.6c0.5,1.5-0.2,3.1-1.7,3.6l-4.5,1.6&#10;&#9;&#9;c-1.5,0.5-3.1-0.2-3.6-1.7l-9.6-26.6C344.9,340.6,345.6,339,347.1,338.4z"/>
	<path class="st1_fitness-46" d="M359,371.7c-3,0-5.6-1.9-6.6-4.7l-8-22.2c-1.3-3.7,0.6-7.7,4.2-9s7.7,0.6,9,4.2l8,22.2c1.3,3.7-0.6,7.7-4.3,9&#10;&#9;&#9;C360.6,371.6,359.8,371.7,359,371.7L359,371.7z M351,339.1c-0.4,0-0.8,0.1-1.1,0.2c-1.7,0.6-2.6,2.6-2,4.3l8,22.2&#10;&#9;&#9;c0.3,0.8,0.9,1.5,1.7,1.9c0.8,0.4,1.7,0.4,2.6,0.1c0.8-0.3,1.5-0.9,1.9-1.7c0.4-0.8,0.4-1.7,0.1-2.6l-8-22.2&#10;&#9;&#9;c-0.3-0.8-0.9-1.5-1.7-1.9C352,339.3,351.6,339.2,351,339.1L351,339.1z"/>
	<path class="st0_fitness-46" d="M356.6,334.4l4.5-1.6c1.5-0.5,3.1,0.2,3.6,1.7l9.6,26.6c0.5,1.5-0.2,3.1-1.7,3.6l-4.5,1.6&#10;&#9;&#9;c-1.5,0.5-3.1-0.2-3.6-1.7l-9.6-26.6C354.3,336.5,355.1,334.9,356.6,334.4z"/>
	<path class="st1_fitness-46" d="M368.5,367.7c-1,0-2.1-0.2-3-0.7c-1.7-0.8-3-2.2-3.6-4l-7.9-22.2c-1.4-3.6,0.5-7.7,4.1-9&#10;&#9;&#9;c1.8-0.7,3.8-0.6,5.5,0.3c1.7,0.8,3,2.2,3.6,4l8,22.2c1.3,3.7-0.6,7.7-4.3,9C370.2,367.5,369.4,367.7,368.5,367.7L368.5,367.7z&#10;&#9;&#9; M360.6,335.1c-0.4,0-0.8,0.1-1.1,0.2c-1.7,0.6-2.6,2.6-2,4.3l8,22.2c0.3,0.8,0.9,1.5,1.7,1.9c0.8,0.4,1.7,0.4,2.6,0.1&#10;&#9;&#9;c1.7-0.6,2.6-2.5,2-4.3c0,0,0,0,0,0l-8-22.2C363.2,336,362,335.1,360.6,335.1z"/>
	<path class="st0_fitness-46" d="M366.1,330.3l4.5-1.6c1.5-0.5,3.1,0.2,3.6,1.7l9.6,26.6c0.5,1.5-0.2,3.1-1.7,3.6l-4.5,1.6&#10;&#9;&#9;c-1.5,0.5-3.1-0.2-3.6-1.7l-9.6-26.6C363.8,332.5,364.6,330.9,366.1,330.3z"/>
	<path class="st1_fitness-46" d="M378,363.6c-3,0-5.6-1.9-6.6-4.7l-8-22.2c-1.3-3.7,0.6-7.7,4.3-9s7.7,0.6,9,4.3l8,22.2c1.3,3.6-0.5,7.7-4.2,9&#10;&#9;&#9;c0,0,0,0-0.1,0l0,0C379.6,363.4,378.8,363.6,378,363.6z M379.7,361.5L379.7,361.5z M370,331c-0.4,0-0.8,0.1-1.1,0.2&#10;&#9;&#9;c-0.8,0.3-1.5,0.9-1.9,1.8c-0.4,0.8-0.4,1.7-0.1,2.6l8,22.2c0.6,1.7,2.6,2.6,4.3,2l0,0c1.7-0.6,2.6-2.5,2-4.3c0,0,0,0,0,0l-8-22.2&#10;&#9;&#9;c-0.3-0.8-0.9-1.5-1.7-1.9C371,331.2,370.5,331.1,370,331L370,331z"/>
	<path class="st0_fitness-46" d="M375.5,326.3l4.5-1.6c1.5-0.5,3.1,0.2,3.6,1.7l9.6,26.6c0.5,1.5-0.2,3.1-1.7,3.6l-4.5,1.6&#10;&#9;&#9;c-1.5,0.5-3.1-0.2-3.6-1.7l-9.6-26.6C373.3,328.4,374.1,326.8,375.5,326.3z"/>
	<path class="st1_fitness-46" d="M387.5,359.6c-3,0-5.6-1.9-6.6-4.7l-8-22.2c-1.3-3.7,0.6-7.7,4.3-9c3.7-1.3,7.7,0.6,9,4.3l8,22.2&#10;&#9;&#9;c1.3,3.6-0.5,7.7-4.1,9C389.2,359.5,388.3,359.6,387.5,359.6L387.5,359.6z M379.5,327c-0.4,0-0.8,0.1-1.1,0.2&#10;&#9;&#9;c-1.7,0.6-2.6,2.5-2,4.3c0,0,0,0,0,0l8,22.2c0.6,1.7,2.5,2.6,4.3,2c1.7-0.6,2.6-2.5,2-4.3l0,0l-8-22.2c-0.3-0.8-0.9-1.5-1.7-1.9&#10;&#9;&#9;C380.5,327.1,380,327,379.5,327z"/>
	<path class="st0_fitness-46" d="M343.7,328.2l19.7-8.4c1.3-0.6,2.9,0.1,3.5,1.4l1.7,4.1c0.6,1.3-0.1,2.9-1.4,3.5l-19.7,8.4&#10;&#9;&#9;c-1.3,0.6-2.9-0.1-3.5-1.4l-1.7-4.1C341.8,330.3,342.4,328.8,343.7,328.2z"/>
	<path class="st1_fitness-46" d="M347.6,338.5c-2.7,0-5.1-1.6-6.2-4.1c-1.4-3.4,0.2-7.3,3.6-8.8l15.6-6.6c3.5-1.3,7.3,0.4,8.7,3.9&#10;&#9;&#9;c1.3,3.3-0.2,7-3.4,8.5l0,0l-15.6,6.6C349.4,338.4,348.6,338.5,347.6,338.5z M363.3,322.2c-0.4,0-0.8,0.1-1.2,0.2l-15.6,6.6&#10;&#9;&#9;c-1.5,0.6-2.3,2.4-1.6,4c0.6,1.5,2.4,2.3,4,1.6l15.6-6.6c1.5-0.6,2.3-2.3,1.7-3.9C365.7,322.9,364.6,322.2,363.3,322.2L363.3,322.2&#10;&#9;&#9;z M365.2,329.7L365.2,329.7z"/>
</g>
</svg>