<svg width="49" height="16" viewBox="0 0 49 16" fill="none" xmlns="http://www.w3.org/2000/svg">
<path d="M1.05682 12V3.27273H6.28977V4.21023H2.11364V7.15909H5.89773V8.09659H2.11364V12H1.05682ZM8.96911 3.27273V12H7.96342V3.27273H8.96911ZM14.9361 9.32386V5.45455H15.9418V12H14.9361V10.892H14.8679C14.7145 11.2244 14.4759 11.5071 14.152 11.7401C13.8281 11.9702 13.419 12.0852 12.9247 12.0852C12.5156 12.0852 12.152 11.9957 11.8338 11.8168C11.5156 11.6349 11.2656 11.3622 11.0838 10.9986C10.902 10.6321 10.8111 10.1705 10.8111 9.61364V5.45455H11.8168V9.54545C11.8168 10.0227 11.9503 10.4034 12.2173 10.6875C12.4872 10.9716 12.831 11.1136 13.2486 11.1136C13.4986 11.1136 13.7528 11.0497 14.0114 10.9219C14.2727 10.794 14.4915 10.598 14.6676 10.3338C14.8466 10.0696 14.9361 9.73295 14.9361 9.32386ZM20.5281 12.1364C19.8974 12.1364 19.3533 11.9972 18.896 11.7188C18.4414 11.4375 18.0906 11.0455 17.8434 10.5426C17.5991 10.0369 17.4769 9.44886 17.4769 8.77841C17.4769 8.10795 17.5991 7.51705 17.8434 7.00568C18.0906 6.49148 18.4343 6.09091 18.8746 5.80398C19.3178 5.5142 19.8349 5.36932 20.4258 5.36932C20.7667 5.36932 21.1033 5.42614 21.4357 5.53977C21.7681 5.65341 22.0707 5.83807 22.3434 6.09375C22.6161 6.34659 22.8335 6.68182 22.9954 7.09943C23.1573 7.51705 23.2383 8.03125 23.2383 8.64205V9.06818H18.1928V8.19886H22.2156C22.2156 7.82955 22.1417 7.5 21.994 7.21023C21.8491 6.92045 21.6417 6.69176 21.3718 6.52415C21.1048 6.35653 20.7894 6.27273 20.4258 6.27273C20.0252 6.27273 19.6786 6.37216 19.386 6.57102C19.0962 6.76705 18.8732 7.02273 18.717 7.33807C18.5607 7.65341 18.4826 7.99148 18.4826 8.35227V8.93182C18.4826 9.42614 18.5678 9.84517 18.7383 10.1889C18.9116 10.5298 19.1516 10.7898 19.4585 10.9688C19.7653 11.1449 20.1218 11.233 20.5281 11.233C20.7923 11.233 21.0309 11.196 21.244 11.1222C21.4599 11.0455 21.646 10.9318 21.8022 10.7812C21.9585 10.6278 22.0792 10.4375 22.1644 10.2102L23.136 10.483C23.0337 10.8125 22.8619 11.1023 22.6204 11.3523C22.3789 11.5994 22.0806 11.7926 21.7255 11.9318C21.3704 12.0682 20.9712 12.1364 20.5281 12.1364ZM25.7738 8.0625V12H24.7681V5.45455H25.7397V6.47727H25.8249C25.9783 6.14489 26.2113 5.87784 26.5238 5.67614C26.8363 5.47159 27.2397 5.36932 27.734 5.36932C28.1772 5.36932 28.565 5.46023 28.8974 5.64205C29.2298 5.82102 29.4883 6.09375 29.6729 6.46023C29.8576 6.82386 29.9499 7.28409 29.9499 7.84091V12H28.9442V7.90909C28.9442 7.39489 28.8107 6.99432 28.5437 6.70739C28.2766 6.41761 27.9102 6.27273 27.4442 6.27273C27.1232 6.27273 26.8363 6.34233 26.5835 6.48153C26.3335 6.62074 26.136 6.82386 25.9911 7.09091C25.8462 7.35795 25.7738 7.68182 25.7738 8.0625ZM34.6342 5.45455V6.30682H31.2422V5.45455H34.6342ZM32.2308 3.88636H33.2365V10.125C33.2365 10.4091 33.2777 10.6222 33.3601 10.7642C33.4453 10.9034 33.5533 10.9972 33.6839 11.0455C33.8175 11.0909 33.9581 11.1136 34.1058 11.1136C34.2166 11.1136 34.3075 11.108 34.3786 11.0966C34.4496 11.0824 34.5064 11.071 34.549 11.0625L34.7536 11.9659C34.6854 11.9915 34.5902 12.017 34.468 12.0426C34.3459 12.071 34.1911 12.0852 34.0036 12.0852C33.7195 12.0852 33.4411 12.0241 33.1683 11.902C32.8984 11.7798 32.674 11.5938 32.495 11.3438C32.3189 11.0938 32.2308 10.7784 32.2308 10.3977V3.88636Z" fill="#DDE6F1"/>
<circle cx="41" cy="8" r="5" fill="#1378EC"/>
<path d="M37.8471 15.0363L37.7601 11.1546L40.9594 12.7149L37.8471 15.0363Z" fill="#1378EC"/>
<circle cx="43.8467" cy="9.84669" r="3.5" transform="rotate(-84 43.8467 9.84669)" fill="#ED074F"/>
<path d="M47.4466 13.33L44.7655 12.2688L46.2011 10.7294L47.4466 13.33Z" fill="#ED074F"/>
</svg>
